<svg xmlns="http://www.w3.org/2000/svg" width="24" height="24" viewBox="0 0 24 24"><path d="M24 4.557c-.883.392-1.832.656-2.828.775 1.017-.609 1.798-1.574 2.165-2.724-.951.564-2.005.974-3.127 1.195-.897-.957-2.178-1.555-3.594-1.555-3.179 0-5.515 2.966-4.797 6.045-4.091-.205-7.719-2.165-10.148-5.144-.424.727-.666 1.584-.666 2.477 0 1.61.82 3.027 2.053 3.847-.76-.025-1.475-.232-2.11-.583v.06c0 2.256 1.605 4.14 3.737 4.568-.39.106-.803.163-1.227.163-.3 0-.593-.028-.877-.082.593 1.85 2.307 3.198 4.352 3.234-1.595 1.25-3.604 1.995-5.786 1.995-.376 0-.747-.022-1.112-.065 2.062 1.323 4.51 2.092 7.14 2.092 8.57 0 13.255-7.098 13.255-13.254 0-.2-.005-.402-.014-.602.91-.658 1.7-1.477 2.323-2.41z"/></svg>